<svg xmlns="http://www.w3.org/2000/svg" width="640" height="372" viewBox="0 0 640 372"><style>.wire{stroke:#222;stroke-width:1.6;fill:none}.bus{stroke:#222;stroke-width:2.4;fill:none}.pad{fill:#fff;stroke:#222;stroke-width:1.6}.node{fill:#222}.lbl{font:12px sans-serif;fill:#111}.sig{font:10px sans-serif;fill:#666}.val{font:11px sans-serif;fill:#0645ad}.ttl{font:600 14px sans-serif;fill:#000}</style><rect width="640" height="372" fill="#fff"/><text x="14" y="20" class="ttl">Chip 2 — Layer 1  (all-parallel 591.078 Ω)</text><rect x="141" y="51" width="18" height="18" class="pad"/><text x="14" y="58" class="lbl">B38</text><text x="14" y="71" class="sig">VDD08DLL&lt;2&gt;</text><line x1="159" y1="60" x2="162" y2="60" class="wire"/><polyline points="162.0,60.0 179.9,60.0 188.4,67.0 205.5,53.0 222.5,67.0 239.5,53.0 256.5,67.0 273.6,53.0 282.1,60.0 300.0,60.0" class="wire"/><text x="231" y="48" class="val" text-anchor="middle">879.60 Ω</text><line x1="300" y1="60" x2="430" y2="60" class="wire"/><rect x="141" y="97" width="18" height="18" class="pad"/><text x="14" y="104" class="lbl">B43</text><text x="14" y="117" class="sig">VDD08DLL&lt;3&gt;</text><line x1="159" y1="106" x2="162" y2="106" class="wire"/><polyline points="162.0,106.0 179.9,106.0 188.4,113.0 205.5,99.0 222.5,113.0 239.5,99.0 256.5,113.0 273.6,99.0 282.1,106.0 300.0,106.0" class="wire"/><text x="231" y="94" class="val" text-anchor="middle">1801.98 Ω</text><line x1="300" y1="106" x2="430" y2="106" class="wire"/><line x1="430" y1="60" x2="430" y2="142" class="bus"/><line x1="430" y1="142" x2="452" y2="142" class="wire"/><circle cx="452" cy="142" r="4" class="node"/><text x="462" y="146" class="lbl">OUTPUT: L12;L13;L19</text><text x="14" y="196" class="ttl">Chip 2 — Layer 2  (all-parallel 603.367 Ω)</text><rect x="141" y="227" width="18" height="18" class="pad"/><text x="14" y="234" class="lbl">B16</text><text x="14" y="247" class="sig">VDD18PLL&lt;4&gt;</text><line x1="159" y1="236" x2="162" y2="236" class="wire"/><polyline points="162.0,236.0 179.9,236.0 188.4,243.0 205.5,229.0 222.5,243.0 239.5,229.0 256.5,243.0 273.6,229.0 282.1,236.0 300.0,236.0" class="wire"/><text x="231" y="224" class="val" text-anchor="middle">879.60 Ω</text><line x1="300" y1="236" x2="430" y2="236" class="wire"/><rect x="141" y="273" width="18" height="18" class="pad"/><text x="14" y="280" class="lbl">B13</text><text x="14" y="293" class="sig">VDD18PLL&lt;5&gt;</text><line x1="159" y1="282" x2="162" y2="282" class="wire"/><polyline points="162.0,282.0 179.9,282.0 188.4,289.0 205.5,275.0 222.5,289.0 239.5,275.0 256.5,289.0 273.6,275.0 282.1,282.0 300.0,282.0" class="wire"/><text x="231" y="270" class="val" text-anchor="middle">1921.27 Ω</text><line x1="300" y1="282" x2="430" y2="282" class="wire"/><line x1="430" y1="236" x2="430" y2="318" class="bus"/><line x1="430" y1="318" x2="452" y2="318" class="wire"/><circle cx="452" cy="318" r="4" class="node"/><text x="462" y="322" class="lbl">OUTPUT: R11;R14</text></svg>