<svg xmlns="http://www.w3.org/2000/svg" width="640" height="648" viewBox="0 0 640 648"><style>.wire{stroke:#222;stroke-width:1.6;fill:none}.bus{stroke:#222;stroke-width:2.4;fill:none}.pad{fill:#fff;stroke:#222;stroke-width:1.6}.node{fill:#222}.lbl{font:12px sans-serif;fill:#111}.sig{font:10px sans-serif;fill:#666}.val{font:11px sans-serif;fill:#0645ad}.ttl{font:600 14px sans-serif;fill:#000}</style><rect width="640" height="648" fill="#fff"/><text x="14" y="20" class="ttl">Chip 4 — Layer 1  (all-parallel 469.364 Ω)</text><rect x="141" y="51" width="18" height="18" class="pad"/><text x="14" y="58" class="lbl">T21</text><text x="14" y="71" class="sig">VDD08PA</text><line x1="159" y1="60" x2="162" y2="60" class="wire"/><polyline points="162.0,60.0 179.9,60.0 188.4,67.0 205.5,53.0 222.5,67.0 239.5,53.0 256.5,67.0 273.6,53.0 282.1,60.0 300.0,60.0" class="wire"/><text x="231" y="48" class="val" text-anchor="middle">879.60 Ω</text><line x1="300" y1="60" x2="430" y2="60" class="wire"/><rect x="141" y="97" width="18" height="18" class="pad"/><text x="14" y="104" class="lbl">T18</text><text x="14" y="117" class="sig">VDD08PA</text><line x1="159" y1="106" x2="162" y2="106" class="wire"/><polyline points="162.0,106.0 179.9,106.0 188.4,113.0 205.5,99.0 222.5,113.0 239.5,99.0 256.5,113.0 273.6,99.0 282.1,106.0 300.0,106.0" class="wire"/><text x="231" y="94" class="val" text-anchor="middle">1981.20 Ω</text><line x1="300" y1="106" x2="430" y2="106" class="wire"/><rect x="141" y="143" width="18" height="18" class="pad"/><text x="14" y="150" class="lbl">B21</text><text x="14" y="163" class="sig">VDD08PA</text><line x1="159" y1="152" x2="162" y2="152" class="wire"/><polyline points="162.0,152.0 179.9,152.0 188.4,159.0 205.5,145.0 222.5,159.0 239.5,145.0 256.5,159.0 273.6,145.0 282.1,152.0 300.0,152.0" class="wire"/><text x="231" y="140" class="val" text-anchor="middle">3731.77 Ω</text><line x1="300" y1="152" x2="430" y2="152" class="wire"/><rect x="141" y="189" width="18" height="18" class="pad"/><text x="14" y="196" class="lbl">B18</text><text x="14" y="209" class="sig">VDD08PA</text><line x1="159" y1="198" x2="162" y2="198" class="wire"/><polyline points="162.0,198.0 179.9,198.0 188.4,205.0 205.5,191.0 222.5,205.0 239.5,191.0 256.5,205.0 273.6,191.0 282.1,198.0 300.0,198.0" class="wire"/><text x="231" y="186" class="val" text-anchor="middle">7897.30 Ω</text><line x1="300" y1="198" x2="430" y2="198" class="wire"/><rect x="141" y="235" width="18" height="18" class="pad"/><text x="14" y="242" class="lbl">T9</text><text x="14" y="255" class="sig">VDD08PA</text><line x1="159" y1="244" x2="162" y2="244" class="wire"/><polyline points="162.0,244.0 179.9,244.0 188.4,251.0 205.5,237.0 222.5,251.0 239.5,237.0 256.5,251.0 273.6,237.0 282.1,244.0 300.0,244.0" class="wire"/><text x="231" y="232" class="val" text-anchor="middle">15911.57 Ω</text><line x1="300" y1="244" x2="430" y2="244" class="wire"/><rect x="141" y="281" width="18" height="18" class="pad"/><text x="14" y="288" class="lbl">L9</text><text x="14" y="301" class="sig">VDD08PA</text><line x1="159" y1="290" x2="162" y2="290" class="wire"/><polyline points="162.0,290.0 179.9,290.0 188.4,297.0 205.5,283.0 222.5,297.0 239.5,283.0 256.5,297.0 273.6,283.0 282.1,290.0 300.0,290.0" class="wire"/><text x="231" y="278" class="val" text-anchor="middle">31768.30 Ω</text><line x1="300" y1="290" x2="430" y2="290" class="wire"/><line x1="430" y1="60" x2="430" y2="326" class="bus"/><line x1="430" y1="326" x2="452" y2="326" class="wire"/><circle cx="452" cy="326" r="4" class="node"/><text x="462" y="330" class="lbl">OUTPUT: R17</text><text x="14" y="380" class="ttl">Chip 4 — Layer 2  (all-parallel 478.911 Ω)</text><rect x="141" y="411" width="18" height="18" class="pad"/><text x="14" y="418" class="lbl">B31</text><text x="14" y="431" class="sig">VDD08TIA</text><line x1="159" y1="420" x2="162" y2="420" class="wire"/><polyline points="162.0,420.0 179.9,420.0 188.4,427.0 205.5,413.0 222.5,427.0 239.5,413.0 256.5,427.0 273.6,413.0 282.1,420.0 300.0,420.0" class="wire"/><text x="231" y="408" class="val" text-anchor="middle">879.60 Ω</text><line x1="300" y1="420" x2="430" y2="420" class="wire"/><rect x="141" y="457" width="18" height="18" class="pad"/><text x="14" y="464" class="lbl">T31</text><text x="14" y="477" class="sig">VDD08TIA</text><line x1="159" y1="466" x2="162" y2="466" class="wire"/><polyline points="162.0,466.0 179.9,466.0 188.4,473.0 205.5,459.0 222.5,473.0 239.5,459.0 256.5,473.0 273.6,459.0 282.1,466.0 300.0,466.0" class="wire"/><text x="231" y="454" class="val" text-anchor="middle">1772.87 Ω</text><line x1="300" y1="466" x2="430" y2="466" class="wire"/><rect x="141" y="503" width="18" height="18" class="pad"/><text x="14" y="510" class="lbl">B24</text><text x="14" y="523" class="sig">VDD08TIA</text><line x1="159" y1="512" x2="162" y2="512" class="wire"/><polyline points="162.0,512.0 179.9,512.0 188.4,519.0 205.5,505.0 222.5,519.0 239.5,505.0 256.5,519.0 273.6,505.0 282.1,512.0 300.0,512.0" class="wire"/><text x="231" y="500" class="val" text-anchor="middle">3849.92 Ω</text><line x1="300" y1="512" x2="430" y2="512" class="wire"/><rect x="141" y="549" width="18" height="18" class="pad"/><text x="14" y="556" class="lbl">T24</text><text x="14" y="569" class="sig">VDD08TIA</text><line x1="159" y1="558" x2="162" y2="558" class="wire"/><polyline points="162.0,558.0 179.9,558.0 188.4,565.0 205.5,551.0 222.5,565.0 239.5,551.0 256.5,565.0 273.6,551.0 282.1,558.0 300.0,558.0" class="wire"/><text x="231" y="546" class="val" text-anchor="middle">7849.92 Ω</text><line x1="300" y1="558" x2="430" y2="558" class="wire"/><line x1="430" y1="420" x2="430" y2="594" class="bus"/><line x1="430" y1="594" x2="452" y2="594" class="wire"/><circle cx="452" cy="594" r="4" class="node"/><text x="462" y="598" class="lbl">OUTPUT: R26</text></svg>