<svg xmlns="http://www.w3.org/2000/svg" width="640" height="556" viewBox="0 0 640 556"><style>.wire{stroke:#222;stroke-width:1.6;fill:none}.bus{stroke:#222;stroke-width:2.4;fill:none}.pad{fill:#fff;stroke:#222;stroke-width:1.6}.node{fill:#222}.lbl{font:12px sans-serif;fill:#111}.sig{font:10px sans-serif;fill:#666}.val{font:11px sans-serif;fill:#0645ad}.ttl{font:600 14px sans-serif;fill:#000}</style><rect width="640" height="556" fill="#fff"/><text x="14" y="20" class="ttl">Chip 5 — Layer 1  (all-parallel 606.978 Ω)</text><rect x="141" y="51" width="18" height="18" class="pad"/><text x="14" y="58" class="lbl">L8</text><text x="14" y="71" class="sig">VDD08PA</text><line x1="159" y1="60" x2="162" y2="60" class="wire"/><polyline points="162.0,60.0 179.9,60.0 188.4,67.0 205.5,53.0 222.5,67.0 239.5,53.0 256.5,67.0 273.6,53.0 282.1,60.0 300.0,60.0" class="wire"/><text x="231" y="48" class="val" text-anchor="middle">879.60 Ω</text><line x1="300" y1="60" x2="430" y2="60" class="wire"/><rect x="141" y="97" width="18" height="18" class="pad"/><text x="14" y="104" class="lbl">L7</text><text x="14" y="117" class="sig">VDD08PA</text><line x1="159" y1="106" x2="162" y2="106" class="wire"/><polyline points="162.0,106.0 179.9,106.0 188.4,113.0 205.5,99.0 222.5,113.0 239.5,99.0 256.5,113.0 273.6,99.0 282.1,106.0 300.0,106.0" class="wire"/><text x="231" y="94" class="val" text-anchor="middle">1958.37 Ω</text><line x1="300" y1="106" x2="430" y2="106" class="wire"/><line x1="430" y1="60" x2="430" y2="142" class="bus"/><line x1="430" y1="142" x2="452" y2="142" class="wire"/><circle cx="452" cy="142" r="4" class="node"/><text x="462" y="146" class="lbl">OUTPUT: R17</text><text x="14" y="196" class="ttl">Chip 5 — Layer 2  (all-parallel 467.437 Ω)</text><rect x="141" y="227" width="18" height="18" class="pad"/><text x="14" y="234" class="lbl">T64</text><text x="14" y="247" class="sig">VDD08</text><line x1="159" y1="236" x2="162" y2="236" class="wire"/><polyline points="162.0,236.0 179.9,236.0 188.4,243.0 205.5,229.0 222.5,243.0 239.5,229.0 256.5,243.0 273.6,229.0 282.1,236.0 300.0,236.0" class="wire"/><text x="231" y="224" class="val" text-anchor="middle">879.60 Ω</text><line x1="300" y1="236" x2="430" y2="236" class="wire"/><rect x="141" y="273" width="18" height="18" class="pad"/><text x="14" y="280" class="lbl">T29</text><text x="14" y="293" class="sig">VDD08</text><line x1="159" y1="282" x2="162" y2="282" class="wire"/><polyline points="162.0,282.0 179.9,282.0 188.4,289.0 205.5,275.0 222.5,289.0 239.5,275.0 256.5,289.0 273.6,275.0 282.1,282.0 300.0,282.0" class="wire"/><text x="231" y="270" class="val" text-anchor="middle">1924.69 Ω</text><line x1="300" y1="282" x2="430" y2="282" class="wire"/><rect x="141" y="319" width="18" height="18" class="pad"/><text x="14" y="326" class="lbl">T26</text><text x="14" y="339" class="sig">VDD08</text><line x1="159" y1="328" x2="162" y2="328" class="wire"/><polyline points="162.0,328.0 179.9,328.0 188.4,335.0 205.5,321.0 222.5,335.0 239.5,321.0 256.5,335.0 273.6,321.0 282.1,328.0 300.0,328.0" class="wire"/><text x="231" y="316" class="val" text-anchor="middle">3859.05 Ω</text><line x1="300" y1="328" x2="430" y2="328" class="wire"/><rect x="141" y="365" width="18" height="18" class="pad"/><text x="14" y="372" class="lbl">R13</text><text x="14" y="385" class="sig">VDD08</text><line x1="159" y1="374" x2="162" y2="374" class="wire"/><polyline points="162.0,374.0 179.9,374.0 188.4,381.0 205.5,367.0 222.5,381.0 239.5,367.0 256.5,381.0 273.6,367.0 282.1,374.0 300.0,374.0" class="wire"/><text x="231" y="362" class="val" text-anchor="middle">7768.30 Ω</text><line x1="300" y1="374" x2="430" y2="374" class="wire"/><rect x="141" y="411" width="18" height="18" class="pad"/><text x="14" y="418" class="lbl">L10</text><text x="14" y="431" class="sig">VDD08</text><line x1="159" y1="420" x2="162" y2="420" class="wire"/><polyline points="162.0,420.0 179.9,420.0 188.4,427.0 205.5,413.0 222.5,427.0 239.5,413.0 256.5,427.0 273.6,413.0 282.1,420.0 300.0,420.0" class="wire"/><text x="231" y="408" class="val" text-anchor="middle">15768.30 Ω</text><line x1="300" y1="420" x2="430" y2="420" class="wire"/><rect x="141" y="457" width="18" height="18" class="pad"/><text x="14" y="464" class="lbl">B29</text><text x="14" y="477" class="sig">VDD08</text><line x1="159" y1="466" x2="162" y2="466" class="wire"/><polyline points="162.0,466.0 179.9,466.0 188.4,473.0 205.5,459.0 222.5,473.0 239.5,459.0 256.5,473.0 273.6,459.0 282.1,466.0 300.0,466.0" class="wire"/><text x="231" y="454" class="val" text-anchor="middle">31635.88 Ω</text><line x1="300" y1="466" x2="430" y2="466" class="wire"/><line x1="430" y1="236" x2="430" y2="502" class="bus"/><line x1="430" y1="502" x2="452" y2="502" class="wire"/><circle cx="452" cy="502" r="4" class="node"/><text x="462" y="506" class="lbl">OUTPUT: T50</text></svg>