<svg xmlns="http://www.w3.org/2000/svg" width="640" height="556" viewBox="0 0 640 556"><style>.wire{stroke:#222;stroke-width:1.6;fill:none}.bus{stroke:#222;stroke-width:2.4;fill:none}.pad{fill:#fff;stroke:#222;stroke-width:1.6}.node{fill:#222}.lbl{font:12px sans-serif;fill:#111}.sig{font:10px sans-serif;fill:#666}.val{font:11px sans-serif;fill:#0645ad}.ttl{font:600 14px sans-serif;fill:#000}</style><rect width="640" height="556" fill="#fff"/><text x="14" y="20" class="ttl">Chip 3 — Layer 1  (all-parallel 469.124 Ω)</text><rect x="141" y="51" width="18" height="18" class="pad"/><text x="14" y="58" class="lbl">T37</text><text x="14" y="71" class="sig">VDD08PA</text><line x1="159" y1="60" x2="162" y2="60" class="wire"/><polyline points="162.0,60.0 179.9,60.0 188.4,67.0 205.5,53.0 222.5,67.0 239.5,53.0 256.5,67.0 273.6,53.0 282.1,60.0 300.0,60.0" class="wire"/><text x="231" y="48" class="val" text-anchor="middle">879.60 Ω</text><line x1="300" y1="60" x2="430" y2="60" class="wire"/><rect x="141" y="97" width="18" height="18" class="pad"/><text x="14" y="104" class="lbl">T34</text><text x="14" y="117" class="sig">VDD08PA</text><line x1="159" y1="106" x2="162" y2="106" class="wire"/><polyline points="162.0,106.0 179.9,106.0 188.4,113.0 205.5,99.0 222.5,113.0 239.5,99.0 256.5,113.0 273.6,99.0 282.1,106.0 300.0,106.0" class="wire"/><text x="231" y="94" class="val" text-anchor="middle">1957.80 Ω</text><line x1="300" y1="106" x2="430" y2="106" class="wire"/><rect x="141" y="143" width="18" height="18" class="pad"/><text x="14" y="150" class="lbl">B37</text><text x="14" y="163" class="sig">VDD08PA</text><line x1="159" y1="152" x2="162" y2="152" class="wire"/><polyline points="162.0,152.0 179.9,152.0 188.4,159.0 205.5,145.0 222.5,159.0 239.5,145.0 256.5,159.0 273.6,145.0 282.1,152.0 300.0,152.0" class="wire"/><text x="231" y="140" class="val" text-anchor="middle">3808.26 Ω</text><line x1="300" y1="152" x2="430" y2="152" class="wire"/><rect x="141" y="189" width="18" height="18" class="pad"/><text x="14" y="196" class="lbl">T28</text><text x="14" y="209" class="sig">VDD08PA</text><line x1="159" y1="198" x2="162" y2="198" class="wire"/><polyline points="162.0,198.0 179.9,198.0 188.4,205.0 205.5,191.0 222.5,205.0 239.5,191.0 256.5,205.0 273.6,191.0 282.1,198.0 300.0,198.0" class="wire"/><text x="231" y="186" class="val" text-anchor="middle">7854.49 Ω</text><line x1="300" y1="198" x2="430" y2="198" class="wire"/><rect x="141" y="235" width="18" height="18" class="pad"/><text x="14" y="242" class="lbl">B34</text><text x="14" y="255" class="sig">VDD08PA</text><line x1="159" y1="244" x2="162" y2="244" class="wire"/><polyline points="162.0,244.0 179.9,244.0 188.4,251.0 205.5,237.0 222.5,251.0 239.5,237.0 256.5,251.0 273.6,237.0 282.1,244.0 300.0,244.0" class="wire"/><text x="231" y="232" class="val" text-anchor="middle">15949.24 Ω</text><line x1="300" y1="244" x2="430" y2="244" class="wire"/><rect x="141" y="281" width="18" height="18" class="pad"/><text x="14" y="288" class="lbl">B28</text><text x="14" y="301" class="sig">VDD08PA</text><line x1="159" y1="290" x2="162" y2="290" class="wire"/><polyline points="162.0,290.0 179.9,290.0 188.4,297.0 205.5,283.0 222.5,297.0 239.5,283.0 256.5,297.0 273.6,283.0 282.1,290.0 300.0,290.0" class="wire"/><text x="231" y="278" class="val" text-anchor="middle">31872.18 Ω</text><line x1="300" y1="290" x2="430" y2="290" class="wire"/><line x1="430" y1="60" x2="430" y2="326" class="bus"/><line x1="430" y1="326" x2="452" y2="326" class="wire"/><circle cx="452" cy="326" r="4" class="node"/><text x="462" y="330" class="lbl">OUTPUT: R17</text><text x="14" y="380" class="ttl">Chip 3 — Layer 2  (all-parallel 594.117 Ω)</text><rect x="141" y="411" width="18" height="18" class="pad"/><text x="14" y="418" class="lbl">B35</text><text x="14" y="431" class="sig">VDD18_BG&lt;0&gt;</text><line x1="159" y1="420" x2="162" y2="420" class="wire"/><polyline points="162.0,420.0 179.9,420.0 188.4,427.0 205.5,413.0 222.5,427.0 239.5,413.0 256.5,427.0 273.6,413.0 282.1,420.0 300.0,420.0" class="wire"/><text x="231" y="408" class="val" text-anchor="middle">879.60 Ω</text><line x1="300" y1="420" x2="430" y2="420" class="wire"/><rect x="141" y="457" width="18" height="18" class="pad"/><text x="14" y="464" class="lbl">B20</text><text x="14" y="477" class="sig">VDD18_BG&lt;1&gt;</text><line x1="159" y1="466" x2="162" y2="466" class="wire"/><polyline points="162.0,466.0 179.9,466.0 188.4,473.0 205.5,459.0 222.5,473.0 239.5,459.0 256.5,473.0 273.6,459.0 282.1,466.0 300.0,466.0" class="wire"/><text x="231" y="454" class="val" text-anchor="middle">1830.52 Ω</text><line x1="300" y1="466" x2="430" y2="466" class="wire"/><line x1="430" y1="420" x2="430" y2="502" class="bus"/><line x1="430" y1="502" x2="452" y2="502" class="wire"/><circle cx="452" cy="502" r="4" class="node"/><text x="462" y="506" class="lbl">OUTPUT: R20</text></svg>